# xmcd
#
# Track frame offsets:
#	150
#	14003
#	35473
#	49368
#	61275
#	74064
#	85755
#	97067
#	108246
#	121934
#	135181
#	148938
#	163702
#	176896
#	190012
#	202946
#	217705
#	230970
#
# Disc length: 3248
#
# Revision: 1
# Processed by: cddbd v1.5.1PL0 Copyright (c) Steve Scherf et al.
# Submitted via: CDex 1.50
# Normalized: r0:DSETVAR2,TDELIM( - )
#
DISCID=090cae12
DTITLE=Various Artist - Classic Blues Volume 8
DYEAR=2004
DGENRE=Blues
TTITLE0=Blind Boy Fuller - I'm a rattlesnakin Daddy
TTITLE1=Mississippi John Hurt - :Lazy Blues
TTITLE2=Blind Willie McTell - Stomp Down Rider
TTITLE3=Robert Johnson - Last Fair Deal Gone Down
TTITLE4=Bukka White - Strange Place Blues
TTITLE5=Brownie McGree - I'm Calling Daisy
TTITLE6=Leadbelly - Rock Island Line
TTITLE7=Champion Jack Dupree - Chain Gang Blues
TTITLE8=Jaybird Coleman - Coffee Grinder Blues
TTITLE9=Barbeque Bob - California Blues
TTITLE10=Big Bill Broonzy - Worrying you off my mind
TTITLE11=Mississippi John Hurt - Talking' Casey
TTITLE12=Robert Johnson - I Believe I'll dust my broom
TTITLE13=Bullett Williams - Excaped Convice
TTITLE14=Lonnie Johnson - Mean old bedbug blues
TTITLE15=Billie Holiday - Georgia on my mind
TTITLE16=Leroy Carr - Good woman Blues
TTITLE17=Will Shade's Memphis Jug Band - Jug Band waltz
EXTD=YEAR: 2004
EXTT0=
EXTT1=
EXTT2=
EXTT3=
EXTT4=
EXTT5=
EXTT6=
EXTT7=
EXTT8=
EXTT9=
EXTT10=
EXTT11=
EXTT12=
EXTT13=
EXTT14=
EXTT15=
EXTT16=
EXTT17=
PLAYORDER=
